<svg width="18" height="18" viewBox="0 0 18 18" fill="none" xmlns="http://www.w3.org/2000/svg">
<path d="M4.51074 3.02148C2.85399 3.02148 1.51149 4.36473 1.51074 6.02148V12.0215C1.51074 13.6782 2.85399 15.0215 4.51074 15.0215H13.5107C15.1682 15.0215 16.5107 13.6782 16.5107 12.0215V6.02148C16.5107 4.36473 15.1682 3.02148 13.5107 3.02148H4.51074ZM12.7607 6.02148C13.1755 6.02148 13.5107 6.35748 13.5107 6.77148C13.5107 7.18548 13.1755 7.52148 12.7607 7.52148C12.3467 7.52148 12.0107 7.18548 12.0107 6.77148C12.0107 6.35748 12.3467 6.02148 12.7607 6.02148ZM6.38574 8.74023C7.45299 8.63823 8.51125 9.64324 9.8785 11.693C10.108 12.038 10.588 12.134 10.933 11.9045C12.8065 10.6557 13.2265 10.5342 14.9875 12.2795C14.863 13.0017 14.248 13.5215 13.5107 13.5215H4.51074C3.73974 13.5215 3.09474 12.935 3.01074 12.1857C4.26999 10.0385 5.36649 8.83773 6.38574 8.74023Z" fill="black"/>
<path d="M4.51074 3.02148C2.85399 3.02148 1.51149 4.36473 1.51074 6.02148V12.0215C1.51074 13.6782 2.85399 15.0215 4.51074 15.0215H13.5107C15.1682 15.0215 16.5107 13.6782 16.5107 12.0215V6.02148C16.5107 4.36473 15.1682 3.02148 13.5107 3.02148H4.51074ZM12.7607 6.02148C13.1755 6.02148 13.5107 6.35748 13.5107 6.77148C13.5107 7.18548 13.1755 7.52148 12.7607 7.52148C12.3467 7.52148 12.0107 7.18548 12.0107 6.77148C12.0107 6.35748 12.3467 6.02148 12.7607 6.02148ZM6.38574 8.74023C7.45299 8.63823 8.51125 9.64324 9.8785 11.693C10.108 12.038 10.588 12.134 10.933 11.9045C12.8065 10.6557 13.2265 10.5342 14.9875 12.2795C14.863 13.0017 14.248 13.5215 13.5107 13.5215H4.51074C3.73974 13.5215 3.09474 12.935 3.01074 12.1857C4.26999 10.0385 5.36649 8.83773 6.38574 8.74023Z" fill="url(#paint0_linear_2429_56)"/>
<defs>
<linearGradient id="paint0_linear_2429_56" x1="1.51074" y1="8.90828" x2="12.4898" y2="15.5525" gradientUnits="userSpaceOnUse">
<stop stop-color="#945FCF"/>
<stop offset="1" stop-color="#C19AE0"/>
</linearGradient>
</defs>
</svg>
