<svg width="16" height="16" viewBox="0 0 16 16" fill="none" xmlns="http://www.w3.org/2000/svg">
<path d="M8.78254 2.62539C9.04654 2.67272 9.32427 2.80538 9.5952 3.02138L13.9077 6.45872C14.9071 7.25606 14.9071 8.62006 13.9077 9.41673L9.5952 12.8547C8.5112 13.7187 7.32454 13.1607 7.32454 11.7714V10.5834C7.22387 10.5821 7.0912 10.5841 7.0532 10.5834C6.54654 10.5761 6.21587 10.5901 6.03254 10.6047C4.6032 10.7174 3.93853 10.9874 3.17853 11.6881C3.07786 11.7807 2.52787 12.3594 2.46987 12.4167C2.04987 12.8361 1.32453 12.5314 1.32453 11.9381C1.32453 11.8547 1.32453 11.2714 1.32453 11.2714C1.2932 7.58539 2.45253 5.54872 5.92853 5.27138C6.0512 5.26138 6.39787 5.26805 6.9912 5.27138C7.03254 5.27138 7.18254 5.27005 7.32454 5.27138C7.32454 4.78805 7.32454 4.25005 7.32454 4.10472C7.32454 3.06272 7.99054 2.48272 8.78254 2.62539ZM8.65787 3.97805L8.6572 6.60006C8.6572 6.60006 6.10054 6.59938 6.03254 6.60472C3.67187 6.78072 2.82253 7.89472 2.67253 10.3927C3.5192 9.73606 4.4512 9.38805 5.92853 9.27139C6.16853 9.25205 6.52254 9.24206 7.07454 9.25006C7.20654 9.25206 8.6572 9.26673 8.6572 9.26673L8.6472 11.9041L13.0743 8.37539C13.4045 8.11206 13.4045 7.7634 13.0743 7.50006L8.65787 3.97805Z" fill="#7A808A"/>
<path d="M8.78254 2.62539C9.04654 2.67272 9.32427 2.80538 9.5952 3.02138L13.9077 6.45872C14.9071 7.25606 14.9071 8.62006 13.9077 9.41673L9.5952 12.8547C8.5112 13.7187 7.32454 13.1607 7.32454 11.7714V10.5834C7.22387 10.5821 7.0912 10.5841 7.0532 10.5834C6.54654 10.5761 6.21587 10.5901 6.03254 10.6047C4.6032 10.7174 3.93853 10.9874 3.17853 11.6881C3.07786 11.7807 2.52787 12.3594 2.46987 12.4167C2.04987 12.8361 1.32453 12.5314 1.32453 11.9381C1.32453 11.8547 1.32453 11.2714 1.32453 11.2714C1.2932 7.58539 2.45253 5.54872 5.92853 5.27138C6.0512 5.26138 6.39787 5.26805 6.9912 5.27138C7.03254 5.27138 7.18254 5.27005 7.32454 5.27138C7.32454 4.78805 7.32454 4.25005 7.32454 4.10472C7.32454 3.06272 7.99054 2.48272 8.78254 2.62539ZM8.65787 3.97805L8.6572 6.60006C8.6572 6.60006 6.10054 6.59938 6.03254 6.60472C3.67187 6.78072 2.82253 7.89472 2.67253 10.3927C3.5192 9.73606 4.4512 9.38805 5.92853 9.27139C6.16853 9.25205 6.52254 9.24206 7.07454 9.25006C7.20654 9.25206 8.6572 9.26673 8.6572 9.26673L8.6472 11.9041L13.0743 8.37539C13.4045 8.11206 13.4045 7.7634 13.0743 7.50006L8.65787 3.97805Z" fill="url(#paint0_linear_2429_25)"/>
<defs>
<linearGradient id="paint0_linear_2429_25" x1="1.32392" y1="7.93541" x2="14.6572" y2="7.93541" gradientUnits="userSpaceOnUse">
<stop stop-color="#FD283E"/>
<stop offset="1" stop-color="#CA056C"/>
</linearGradient>
</defs>
</svg>
