<svg width="18" height="16" viewBox="0 0 18 16" fill="none" xmlns="http://www.w3.org/2000/svg">
<path d="M17.0844 8C17.5269 7.51321 17.7739 6.88005 17.7778 6.22222C17.7778 5.51498 17.4968 4.8367 16.9967 4.3366C16.4966 3.83651 15.8184 3.55556 15.1111 3.55556H10.5067C10.6487 3.15394 10.6924 2.72414 10.6342 2.30216C10.5759 1.88017 10.4175 1.47828 10.172 1.13012C9.92655 0.781959 9.60126 0.497669 9.22337 0.301047C8.84548 0.104426 8.42598 0.00119601 8 0H2.66667C1.95942 0 1.28115 0.280952 0.781049 0.781049C0.280952 1.28115 0 1.95942 0 2.66667C0.00392054 3.32449 0.250854 3.95766 0.693333 4.44444C0.25604 4.93335 0.0142827 5.56628 0.0142827 6.22222C0.0142827 6.87816 0.25604 7.51109 0.693333 8C0.25604 8.48891 0.0142827 9.12184 0.0142827 9.77778C0.0142827 10.4337 0.25604 11.0666 0.693333 11.5556C0.250854 12.0423 0.00392054 12.6755 0 13.3333C0 14.0406 0.280952 14.7189 0.781049 15.219C1.28115 15.719 1.95942 16 2.66667 16H15.1111C15.6247 15.9973 16.1265 15.8463 16.5563 15.5652C16.9862 15.2841 17.3257 14.8849 17.5341 14.4155C17.7425 13.9461 17.8109 13.4265 17.7312 12.9192C17.6514 12.4119 17.4268 11.9383 17.0844 11.5556C17.5217 11.0666 17.7635 10.4337 17.7635 9.77778C17.7635 9.12184 17.5217 8.48891 17.0844 8ZM8 14.2222H2.66667C2.43092 14.2222 2.20483 14.1286 2.03813 13.9619C1.87143 13.7952 1.77778 13.5691 1.77778 13.3333C1.77778 13.0976 1.87143 12.8715 2.03813 12.7048C2.20483 12.5381 2.43092 12.4444 2.66667 12.4444H8C8.23575 12.4444 8.46184 12.5381 8.62854 12.7048C8.79524 12.8715 8.88889 13.0976 8.88889 13.3333C8.88889 13.5691 8.79524 13.7952 8.62854 13.9619C8.46184 14.1286 8.23575 14.2222 8 14.2222ZM8 10.6667H2.66667C2.43092 10.6667 2.20483 10.573 2.03813 10.4063C1.87143 10.2396 1.77778 10.0135 1.77778 9.77778C1.77778 9.54203 1.87143 9.31594 2.03813 9.14924C2.20483 8.98254 2.43092 8.88889 2.66667 8.88889H8C8.23575 8.88889 8.46184 8.98254 8.62854 9.14924C8.79524 9.31594 8.88889 9.54203 8.88889 9.77778C8.88889 10.0135 8.79524 10.2396 8.62854 10.4063C8.46184 10.573 8.23575 10.6667 8 10.6667ZM8 7.11111H2.66667C2.43092 7.11111 2.20483 7.01746 2.03813 6.85076C1.87143 6.68406 1.77778 6.45797 1.77778 6.22222C1.77778 5.98647 1.87143 5.76038 2.03813 5.59368C2.20483 5.42698 2.43092 5.33333 2.66667 5.33333H8C8.23575 5.33333 8.46184 5.42698 8.62854 5.59368C8.79524 5.76038 8.88889 5.98647 8.88889 6.22222C8.88889 6.45797 8.79524 6.68406 8.62854 6.85076C8.46184 7.01746 8.23575 7.11111 8 7.11111ZM8 3.55556H2.66667C2.43092 3.55556 2.20483 3.4619 2.03813 3.29521C1.87143 3.12851 1.77778 2.90241 1.77778 2.66667C1.77778 2.43092 1.87143 2.20483 2.03813 2.03813C2.20483 1.87143 2.43092 1.77778 2.66667 1.77778H8C8.23575 1.77778 8.46184 1.87143 8.62854 2.03813C8.79524 2.20483 8.88889 2.43092 8.88889 2.66667C8.88889 2.90241 8.79524 3.12851 8.62854 3.29521C8.46184 3.4619 8.23575 3.55556 8 3.55556ZM15.7244 13.9644C15.6456 14.0476 15.5504 14.1134 15.4449 14.1578C15.3393 14.2021 15.2256 14.2241 15.1111 14.2222H10.5067C10.7198 13.6488 10.7198 13.0179 10.5067 12.4444H15.1111C15.3469 12.4444 15.573 12.5381 15.7397 12.7048C15.9064 12.8715 16 13.0976 16 13.3333C15.9984 13.4516 15.9731 13.5683 15.9258 13.6767C15.8785 13.785 15.81 13.8829 15.7244 13.9644ZM15.7244 10.4089C15.6456 10.492 15.5504 10.5578 15.4449 10.6022C15.3393 10.6466 15.2256 10.6685 15.1111 10.6667H10.5067C10.7198 10.0932 10.7198 9.46231 10.5067 8.88889H15.1111C15.3469 8.88889 15.573 8.98254 15.7397 9.14924C15.9064 9.31594 16 9.54203 16 9.77778C15.9984 9.89601 15.9731 10.0127 15.9258 10.1211C15.8785 10.2295 15.81 10.3273 15.7244 10.4089ZM15.7244 6.85333C15.6456 6.93644 15.5504 7.00227 15.4449 7.04665C15.3393 7.09102 15.2256 7.11297 15.1111 7.11111H10.5067C10.7198 6.53769 10.7198 5.90676 10.5067 5.33333H15.1111C15.3469 5.33333 15.573 5.42698 15.7397 5.59368C15.9064 5.76038 16 5.98647 16 6.22222C15.9984 6.34046 15.9731 6.45718 15.9258 6.56555C15.8785 6.67392 15.81 6.77175 15.7244 6.85333Z" fill="#D9105E"/>
</svg>
